<?xml version="1.0" encoding="UTF-8" standalone="no"?>
<svg width="77px" height="109px" viewBox="0 0 77 109" version="1.1" xmlns="http://www.w3.org/2000/svg" xmlns:xlink="http://www.w3.org/1999/xlink" xmlns:sketch="http://www.bohemiancoding.com/sketch/ns">
    <!-- Generator: Sketch 3.3 (11970) - http://www.bohemiancoding.com/sketch -->
    <title>Path</title>
    <desc>Created with Sketch.</desc>
    <defs></defs>
    <g id="Page-1" stroke="none" stroke-width="1" fill="none" fill-rule="evenodd" sketch:type="MSPage">
        <path d="M47.2,41.934 C37.467,38.334 32.133,35.534 32.133,31.134 C32.133,27.4 35.2,25.267 40.667,25.267 C50.667,25.267 60.933,29.134 68,32.6 L72,7.934 C66.4,5.267 54.933,0.867 39.067,0.867 C27.867,0.867 18.533,3.8 11.867,9.267 C4.933,15 1.333,23.267 1.333,33.267 C1.333,51.4 12.4,59.134 30.4,65.667 C42,69.8 45.867,72.734 45.867,77.267 C45.867,81.667 42.133,84.2 35.333,84.2 C26.933,84.2 13.067,80.067 4,74.734 L0,99.667 C7.733,104.067 22.133,108.6 37.067,108.6 C48.933,108.6 58.8,105.8 65.467,100.467 C72.933,94.6 76.8,85.934 76.8,74.734 C76.8,56.2 65.467,48.467 47.2,41.934 L47.2,41.934 Z" id="Path" fill="#FFFFFF" sketch:type="MSShapeGroup"></path>
    </g>
</svg>