<?xml version="1.0" encoding="UTF-8" standalone="no"?>
<svg width="399px" height="100px" viewBox="0 0 399 100" version="1.1" xmlns="http://www.w3.org/2000/svg" xmlns:xlink="http://www.w3.org/1999/xlink" xmlns:sketch="http://www.bohemiancoding.com/sketch/ns">
    <!-- Generator: Sketch 3.3 (11970) - http://www.bohemiancoding.com/sketch -->
    <title>#4f370bff</title>
    <desc>Created with Sketch.</desc>
    <defs></defs>
    <g id="Page-1" stroke="none" stroke-width="1" fill="none" fill-rule="evenodd" sketch:type="MSPage">
        <g id="#4f370bff" sketch:type="MSLayerGroup" fill="#FFFFFF">
            <path d="M66.22,0 L66.74,0 C70.29,1.39 73.74,3.01 77.21,4.58 C73.4,6.05 69.57,7.45 65.75,8.88 C62.38,7.47 59.02,6.03 55.68,4.55 C59.18,3.01 62.67,1.42 66.22,0 L66.22,0 Z" id="Shape" sketch:type="MSShapeGroup"></path>
            <path d="M89.19,4.58 C92.77,3.01 96.25,1.14 100.02,0.04 C103.64,1.3 107.08,3.03 110.61,4.53 C106.81,6.07 102.95,7.45 99.11,8.86 C95.79,7.46 92.46,6.07 89.19,4.58 L89.19,4.58 Z" id="Shape" sketch:type="MSShapeGroup"></path>
            <path d="M51.64,5.92 C56.25,7.84 60.86,9.74 65.45,11.7 C65.25,17.96 64.99,24.22 65,30.49 C60.54,29.3 56.13,27.94 51.67,26.72 C51.55,19.79 51.59,12.86 51.64,5.92 L51.64,5.92 Z" id="Shape" sketch:type="MSShapeGroup"></path>
            <path d="M83.94,5.61 C89.03,7.57 94.09,9.62 99.15,11.68 C99.09,18.86 99.13,26.04 99.11,33.22 C93.91,30.86 88.65,28.62 83.45,26.26 C83.61,19.38 83.76,12.49 83.94,5.61 L83.94,5.61 Z" id="Shape" sketch:type="MSShapeGroup"></path>
            <path d="M101.77,10.96 C106.49,9.12 111.21,7.27 116,5.59 C115.98,12.25 116.08,18.9 115.95,25.56 C111.2,27.41 106.5,29.35 101.78,31.26 C101.75,24.5 101.78,17.73 101.77,10.96 L101.77,10.96 Z" id="Shape" sketch:type="MSShapeGroup"></path>
            <path d="M68.78,12.36 C73,10.64 77.16,8.81 81.37,7.08 C81.42,13.74 81.38,20.4 81.4,27.06 C77.19,28.99 72.98,30.92 68.75,32.79 C68.72,25.98 68.67,19.17 68.78,12.36 L68.78,12.36 Z" id="Shape" sketch:type="MSShapeGroup"></path>
            <path d="M271.42,10.93 C272.15,10.88 273.62,10.79 274.35,10.75 C274.37,40.08 274.34,69.42 274.37,98.76 C273.63,98.76 272.16,98.75 271.42,98.75 C271.47,69.48 271.47,40.2 271.42,10.93 L271.42,10.93 Z" id="Shape" sketch:type="MSShapeGroup"></path>
            <path d="M295.3,26.34 C302.95,20.69 313.3,20.45 322.17,22.86 C329.31,24.77 335.12,30.44 337.34,37.47 C332.89,38.92 328.45,40.41 324,41.86 C322.32,37.69 318.74,34.22 314.07,33.91 C309.96,33.52 303.6,34.01 302.65,39.04 C301.75,42.21 304.41,44.88 307.21,45.79 C315.79,48.87 325.91,48.82 333.01,55.22 C340.74,61.75 341.18,74.34 335.16,82.13 C331.18,87.21 324.98,89.88 318.83,91.22 C309.42,92.67 298.76,92.17 291.12,85.82 C287.06,82.68 284.74,77.95 283.18,73.18 C288.05,72.15 292.84,70.52 297.82,70.12 C299.5,72.67 300.73,75.77 303.57,77.29 C308.26,79.81 314.23,80.23 319.14,78.15 C321.73,77.07 322.57,74.23 323.56,71.87 C322.52,69.61 321.14,67.28 318.64,66.43 C310,62.96 299.71,63.03 292.41,56.62 C288.17,53.09 286.74,47.36 287.06,42.04 C286.98,35.86 290.15,29.77 295.3,26.34 L295.3,26.34 Z" id="Shape" sketch:type="MSShapeGroup"></path>
            <path d="M352.98,28.98 C357.91,23.94 365.08,21.63 372.01,21.49 C378.89,21.32 386.17,22.95 391.44,27.61 C397.4,32.99 398.85,43.25 393.59,49.58 C391.39,52.34 388.07,53.77 384.93,55.15 C388.22,56.25 391.71,57.33 394.22,59.87 C396.88,62.31 398.11,65.83 399,69.24 L399,71.81 C398.5,76.44 397.22,81.32 393.67,84.58 C387.41,90.5 378.33,92.31 369.96,91.83 C362.5,91.68 355.01,88.55 350.19,82.74 C347.33,79.54 346.29,75.28 345.07,71.28 C349.84,70.56 354.62,69.88 359.4,69.17 C360.69,72.63 362.07,76.56 365.65,78.27 C370.09,80.46 376.23,80.57 380,77.01 C384.13,73.26 383.46,65.25 378.21,62.85 C373.52,60.92 368.31,61.77 363.38,61.6 C363.4,57.63 363.4,53.66 363.39,49.69 C367.99,49.58 372.88,50.25 377.2,48.25 C381.57,46.27 382.64,39.87 379.51,36.36 C376.47,32.91 371.11,32.25 367.02,34.05 C363.8,35.45 362.54,38.95 361.12,41.88 C356.44,41.12 351.75,40.37 347.09,39.55 C348.55,35.79 350.08,31.89 352.98,28.98 L352.98,28.98 Z" id="Shape" sketch:type="MSShapeGroup"></path>
            <path d="M39.79,32.59 C43.32,31.14 46.74,29.38 50.37,28.19 C54.13,29.21 57.58,31.15 61.19,32.6 C57.41,34.18 53.56,35.56 49.73,37.01 C46.4,35.59 43.06,34.17 39.79,32.59 L39.79,32.59 Z" id="Shape" sketch:type="MSShapeGroup"></path>
            <path d="M5.58,33.48 C9.05,31.93 12.45,30.17 16.07,28.98 C19.93,29.84 23.4,31.94 27.02,33.46 C23.23,34.93 19.41,36.34 15.59,37.73 C12.23,36.37 8.9,34.93 5.58,33.48 L5.58,33.48 Z" id="Shape" sketch:type="MSShapeGroup"></path>
            <path d="M34.42,33.7 C39.62,35.68 44.79,37.75 49.92,39.89 C49.88,47.02 49.95,54.15 49.87,61.27 C44.52,59.06 39.25,56.66 33.96,54.29 C34.14,47.43 34.25,40.56 34.42,33.7 L34.42,33.7 Z" id="Shape" sketch:type="MSShapeGroup"></path>
            <path d="M52.24,39.16 C56.97,37.25 61.75,35.48 66.53,33.68 C66.55,40.36 66.62,47.03 66.47,53.7 C61.71,55.52 57.04,57.55 52.27,59.36 C52.22,52.62 52.26,45.89 52.24,39.16 L52.24,39.16 Z" id="Shape" sketch:type="MSShapeGroup"></path>
            <path d="M0.2,34.45 C5.37,36.39 10.47,38.51 15.62,40.51 C15.71,47.69 15.69,54.86 15.64,62.03 C10.4,59.81 5.21,57.5 0,55.22 L0,52.15 C0.02,46.25 -0.03,40.35 0.2,34.45 L0.2,34.45 Z" id="Shape" sketch:type="MSShapeGroup"></path>
            <path d="M18.01,39.91 C22.74,38.04 27.5,36.21 32.3,34.49 C32.35,41.1 32.27,47.72 32.35,54.34 C27.62,56.34 22.86,58.28 18.06,60.11 C17.97,53.38 18.03,46.65 18.01,39.91 L18.01,39.91 Z" id="Shape" sketch:type="MSShapeGroup"></path>
            <path d="M73.61,46.26 C74.58,36.29 89.55,33.48 95.25,40.79 C98.69,48.13 94.11,57.21 99.06,64.17 C97.35,65.76 95.61,67.32 93.84,68.84 C92.54,67.58 91.28,66.29 90.04,64.97 C86.96,67.82 82.71,69.68 78.49,68.33 C71.5,66.34 71.32,55.53 77,51.91 C80.66,49.66 85.1,49.48 89.24,48.93 C88.99,47.12 88.71,45.3 88.41,43.49 C86.23,42.74 83.99,42.82 81.83,43.55 C81.36,44.7 80.89,45.85 80.41,46.99 C78.14,46.77 75.87,46.55 73.61,46.26 L73.61,46.26 Z M81.03,57.91 C80.04,60.34 82.11,64.05 84.96,63.02 C89.13,61.84 88.88,56.64 89.25,53.2 C86.11,53.58 81.53,53.94 81.03,57.91 L81.03,57.91 Z" id="Shape" sketch:type="MSShapeGroup"></path>
            <path d="M110.03,42.26 C111.64,39.8 113.68,36.92 117,37.09 C120.45,36.54 122.9,39.26 124.47,41.94 C125.97,40.05 127.48,37.8 130.02,37.31 C132.88,36.75 136.28,37.4 138.15,39.81 C139.96,42.12 139.75,45.22 139.83,47.99 C139.81,54.75 139.85,61.52 139.78,68.28 C137.49,68.06 134.35,69.2 132.59,67.75 C131.92,60.79 132.87,53.75 132.11,46.8 C131.98,44.29 128.78,43.48 127.03,44.92 C125.18,46.33 125.34,48.87 125.2,50.95 C125.14,56.75 125.28,62.54 125.14,68.34 C122.67,68.38 120.2,68.38 117.74,68.33 C117.58,62.2 117.78,56.07 117.63,49.94 C117.5,48.17 117.63,46.12 116.25,44.77 C114.82,44.14 113.23,44.56 111.73,44.57 C109.48,52.32 110.98,60.47 110.36,68.4 C107.95,68.41 105.53,68.37 103.12,68.3 C103.04,58.09 103.03,47.87 103.12,37.66 C105.47,37.6 107.82,37.59 110.18,37.63 C110.14,39.17 110.09,40.71 110.03,42.26 L110.03,42.26 Z" id="Shape" sketch:type="MSShapeGroup"></path>
            <path d="M145.34,46.21 C146.52,36.25 161.57,33.38 167.14,41.03 C170.32,48.37 165.99,57.28 170.83,64.18 C169.16,65.74 167.47,67.28 165.75,68.8 C164.41,67.55 163.09,66.29 161.82,64.97 C158.52,68.16 153.55,69.92 149.17,67.91 C142.93,64.88 143.51,54.64 149.42,51.53 C152.99,49.66 157.1,49.46 161,48.85 C160.53,46.86 161,44.08 158.79,43.03 C157.18,42.23 155.39,43.34 153.72,43.49 C153.18,44.68 152.63,45.86 152.07,47.05 C149.82,46.81 147.58,46.51 145.34,46.21 L145.34,46.21 Z M152.77,57.98 C151.84,60.49 154.05,64.16 156.95,62.99 C160.95,61.63 160.7,56.64 160.86,53.21 C157.73,53.56 153.26,54.06 152.77,57.98 L152.77,57.98 Z" id="Shape" sketch:type="MSShapeGroup"></path>
            <path d="M175.71,37.67 C182.11,37.24 188.54,37.61 194.94,37.53 C195.03,39.72 195.49,42.11 194.09,44.01 C191.05,48.89 187.65,53.55 184.39,58.3 C187.59,58.57 190.88,58.86 193.81,60.3 C196.94,61.29 195.27,65.29 195.52,67.7 C191.79,66.45 187.97,64.96 183.95,65.28 C180.6,65.33 177.5,66.71 174.39,67.79 C174.14,64.71 173.51,61.24 175.54,58.59 C178.84,53.58 182.26,48.65 185.62,43.68 C182.15,43.68 178.68,43.68 175.21,43.6 C175.39,41.66 174.69,39.37 175.71,37.67 L175.71,37.67 Z" id="Shape" sketch:type="MSShapeGroup"></path>
            <path d="M207.39,37.49 C211.28,36.47 215.8,37.26 218.65,40.25 C221.8,43.29 222.79,47.8 223.01,52.02 C223.15,56.85 222.22,62.15 218.61,65.66 C214.45,70.05 206.56,70.03 202.55,65.44 C198.42,60.77 197.96,53.92 198.99,48.02 C199.69,43.4 202.68,38.77 207.39,37.49 L207.39,37.49 Z M209.24,43.16 C206.14,45.28 206.46,49.67 206.37,53 C206.46,56.18 206.58,59.68 208.57,62.32 C210.89,64.45 214.03,62.17 214.44,59.54 C215.49,55.02 215.43,50.18 214.26,45.69 C213.75,43.61 211.18,42.15 209.24,43.16 L209.24,43.16 Z" id="Shape" sketch:type="MSShapeGroup"></path>
            <path d="M239.35,37.43 C242.35,36.65 246.12,37.27 247.99,39.96 C249.59,42.29 249.59,45.25 249.7,47.97 C249.78,54.74 249.72,61.51 249.71,68.28 C247.31,68.22 244.67,68.95 242.43,67.87 C241.84,60.95 242.79,53.97 241.9,47.07 C241.89,44.61 238.63,43.24 236.86,44.88 C234.88,46.67 234.85,49.57 234.71,52.04 C234.63,57.45 234.76,62.86 234.68,68.27 C232.33,68.14 229.55,69.05 227.49,67.83 C227.24,58.01 227.16,48.12 227.52,38.3 C229.13,36.81 232.19,38.01 234.34,37.71 C234.33,39.4 234.32,41.1 234.28,42.8 C235.64,40.77 236.79,38.15 239.35,37.43 L239.35,37.43 Z" id="Shape" sketch:type="MSShapeGroup"></path>
            <path d="M23.09,62.58 C26.66,61.08 30.22,59.55 33.76,57.99 C37.33,59.54 40.92,61.05 44.48,62.62 C40.71,64.22 36.84,65.59 33,67.01 C29.67,65.6 26.33,64.2 23.09,62.58 L23.09,62.58 Z" id="Shape" sketch:type="MSShapeGroup"></path>
            <path d="M17.83,63.7 C22.9,65.71 27.98,67.71 33.02,69.81 C32.98,76.96 33.01,84.12 33,91.27 C27.89,88.76 22.26,87.13 17.49,84.05 C17.31,77.27 17.75,70.48 17.83,63.7 L17.83,63.7 Z" id="Shape" sketch:type="MSShapeGroup"></path>
            <path d="M35.65,69.11 C40.38,67.24 45.13,65.41 49.92,63.7 C49.97,70.33 49.98,76.96 49.91,83.6 C45.17,85.54 40.43,87.48 35.67,89.36 C35.62,82.61 35.64,75.86 35.65,69.11 L35.65,69.11 Z" id="Shape" sketch:type="MSShapeGroup"></path>
            <path d="M196.35,69.45 C196.98,69.43 198.24,69.39 198.88,69.37 C198.86,70.75 198.86,72.12 198.87,73.5 C198.25,73.49 196.99,73.47 196.37,73.46 C196.36,72.12 196.35,70.78 196.35,69.45 L196.35,69.45 Z" id="Shape" sketch:type="MSShapeGroup"></path>
            <path d="M115.78,70.21 C116.45,70.2 117.8,70.18 118.47,70.17 C118.45,73.53 118.44,76.89 118.3,80.24 C120.48,78.58 123.62,76.97 126.14,78.94 C130.13,82.26 130.07,88.13 129.3,92.82 C128.79,96.06 126.5,98.69 123.53,100 L122.67,100 C121.24,99.21 119.86,98.31 118.5,97.41 C117.86,98.28 117.22,99.14 116.57,99.99 C114.9,90.16 116.18,80.12 115.78,70.21 L115.78,70.21 Z M121.22,81.08 C118.94,82.52 118.29,85.44 118.25,87.96 C118.27,90.72 118.28,93.8 120.2,96.01 C121.67,97.29 124.3,97.27 125.38,95.48 C127.65,91.82 127.59,86.96 125.97,83.05 C125.27,81.38 122.88,79.85 121.22,81.08 L121.22,81.08 Z" id="Shape" sketch:type="MSShapeGroup"></path>
            <path d="M137.8,87.26 C134.75,84.49 135.88,78.37 140.09,77.4 C142.84,76.57 145.47,77.84 147.6,79.49 C147.69,80.86 147.78,82.24 147.87,83.63 C145.82,82.97 144.74,81.04 143.09,79.82 C140.85,79.26 137.26,81.17 138.95,83.8 C141.38,86.39 145.71,86.26 148.06,89.03 C149.87,92.35 148.7,97.56 144.75,98.69 C142.37,99.08 139.44,99.28 137.67,97.29 C136.26,95.97 136.23,93.93 135.77,92.18 C136.32,92.19 137.43,92.2 137.98,92.2 C138.85,93.86 139.6,96.33 141.92,96.28 C144.55,96.78 146.87,94.42 146.34,91.8 C143.81,89.72 140.41,89.19 137.8,87.26 L137.8,87.26 Z" id="Shape" sketch:type="MSShapeGroup"></path>
            <path d="M154.83,78.79 C157.04,76.66 161.01,76.63 163.19,78.84 C166.03,81.34 166.08,85.4 166.66,88.86 C162.45,88.88 158.25,88.87 154.05,88.87 C154.61,91.76 155.3,96.08 159.02,96.27 C161.53,96.73 162.46,93.86 163.59,92.23 C164.27,92.24 165.64,92.25 166.32,92.26 C165.53,94.76 164.53,97.73 161.75,98.62 C159.41,99.13 156.53,99.2 154.71,97.38 C152.14,95.06 151.57,91.36 151.53,88.07 C151.61,84.78 152.22,81.08 154.83,78.79 L154.83,78.79 Z M154.07,86.14 C157.35,86.15 160.64,86.15 163.93,86.14 C163.45,83.1 161.9,80.5 158.97,79.29 C156.21,80.64 154.69,83.2 154.07,86.14 L154.07,86.14 Z" id="Shape" sketch:type="MSShapeGroup"></path>
            <path d="M172.27,80.65 C173.62,78.2 175.77,76.58 178.68,77.41 C178.55,78.3 178.27,80.07 178.14,80.96 C177.24,80.87 175.44,80.69 174.54,80.6 C171.44,86.09 172.97,92.63 172.66,98.64 C172.02,98.65 170.75,98.69 170.12,98.71 C170.23,91.74 169.95,84.77 170.22,77.81 C170.75,77.62 171.81,77.24 172.34,77.05 C172.32,77.95 172.29,79.75 172.27,80.65 L172.27,80.65 Z" id="Shape" sketch:type="MSShapeGroup"></path>
            <path d="M179,77.43 C179.66,77.43 180.99,77.44 181.65,77.44 C183.36,83.04 184.6,88.77 186.57,94.29 C188,88.77 189.22,83.18 191.15,77.81 C191.8,77.62 193.12,77.25 193.77,77.06 C191.91,84.32 189.67,91.48 187.6,98.69 C186.97,98.67 185.7,98.63 185.06,98.62 C183.08,91.54 180.91,84.52 179,77.43 L179,77.43 Z" id="Shape" sketch:type="MSShapeGroup"></path>
            <path d="M196.36,77.48 C196.98,77.46 198.24,77.42 198.87,77.4 C198.88,84.5 198.87,91.6 198.88,98.71 C198.25,98.69 196.98,98.65 196.35,98.64 C196.39,91.58 196.37,84.53 196.36,77.48 L196.36,77.48 Z" id="Shape" sketch:type="MSShapeGroup"></path>
            <path d="M204.42,80.44 C206.07,77.47 210.12,76.25 213.1,77.9 C215.25,79.1 215.78,81.67 216.66,83.76 C216,83.77 214.7,83.78 214.05,83.79 C213.18,81.9 211.8,80.36 210.06,79.24 C207.98,80.61 205.62,82.24 205.55,85.02 C205.18,88.81 204.75,94.29 208.89,96.19 C212.22,97.21 213.6,93.56 214.38,91.1 C215.03,91.21 216.32,91.41 216.96,91.51 C215.9,94.38 214.76,98.45 211.13,98.85 C207.84,99.59 204.74,97.37 203.69,94.32 C202.14,89.89 202.11,84.62 204.42,80.44 L204.42,80.44 Z" id="Shape" sketch:type="MSShapeGroup"></path>
            <path d="M222.96,77.85 C225.27,76.75 228.34,77.01 230.14,78.94 C232.85,81.48 232.9,85.45 233.43,88.86 C229.23,88.88 225.03,88.87 220.83,88.88 C221.41,91.82 222.19,96.16 225.97,96.27 C228.48,96.71 229.33,93.74 230.49,92.15 C231.19,92.2 232.6,92.32 233.3,92.37 C232.24,94.7 231.39,97.61 228.72,98.56 C226.13,99.26 222.9,99.13 221.03,96.94 C218.47,93.98 218.15,89.78 218.48,86.04 C218.71,82.87 220.03,79.44 222.96,77.85 L222.96,77.85 Z M220.88,86.13 C224.17,86.16 227.47,86.15 230.77,86.15 C230.28,83.18 228.75,80.65 226.01,79.29 C223.08,80.5 221.46,83.12 220.88,86.13 L220.88,86.13 Z" id="Shape" sketch:type="MSShapeGroup"></path>
            <path d="M239.68,88.3 C234.51,86.54 235.59,77.69 241.07,77.27 C244.87,76.35 248.02,79.1 248.93,82.65 C248.26,82.8 246.94,83.12 246.28,83.28 C245.36,82.02 244.86,80.1 243.1,79.78 C240.97,79.43 237.34,81.32 239.19,83.8 C241.67,86.48 246.34,86.24 248.52,89.38 C250.97,93.79 247.15,100.05 241.93,98.91 C238.17,99.25 236.32,95.45 235.73,92.34 C236.34,92.28 237.54,92.17 238.14,92.12 C238.83,95.71 243.46,98 246.08,94.84 C248.36,90.46 242.35,89.85 239.68,88.3 L239.68,88.3 Z" id="Shape" sketch:type="MSShapeGroup"></path>
            <path d="M73.87,78.3 L76.51,78.3 C77.68,83.95 78.8,89.6 80.11,95.22 C81.28,89.58 82.42,83.94 83.59,78.3 C84.51,78.3 85.43,78.31 86.36,78.31 C87.43,83.83 88.41,89.36 89.73,94.83 C90.94,89.31 92.19,83.81 93.43,78.3 C94.06,78.29 95.3,78.26 95.92,78.25 C94.14,85.25 92.75,92.36 90.79,99.31 C90.22,99.39 89.08,99.56 88.51,99.65 C86.7,94.4 86.17,88.81 84.88,83.42 C83.56,88.87 82.65,94.4 81.41,99.86 C80.77,99.66 79.5,99.27 78.86,99.07 C76.78,92.27 75.54,85.22 73.87,78.3 L73.87,78.3 Z" id="Shape" sketch:type="MSShapeGroup"></path>
            <path d="M99.7,80.78 C101.79,77.36 107.43,77.01 109.8,80.3 C111.92,82.94 111.98,86.49 112.55,89.68 C108.29,89.71 104.03,89.7 99.77,89.75 C100.45,93.06 102.03,96.09 105.01,97.87 C107.35,95.86 109.34,93.21 112.48,92.4 C111.49,95.87 109.5,99.39 105.6,100 L104.98,100 C102.35,99.43 99.68,98.04 98.7,95.38 C96.9,90.74 96.99,85.06 99.7,80.78 L99.7,80.78 Z M100.1,86.76 C103.33,86.86 106.57,86.86 109.81,86.78 C109.02,84.31 108.26,80.55 104.95,80.67 C101.7,80.57 100.9,84.32 100.1,86.76 L100.1,86.76 Z" id="Shape" sketch:type="MSShapeGroup"></path>
        </g>
    </g>
</svg>