<?xml version="1.0" encoding="UTF-8" standalone="no"?>
<svg width="118px" height="13px" viewBox="0 0 118 13" version="1.1" xmlns="http://www.w3.org/2000/svg" xmlns:xlink="http://www.w3.org/1999/xlink" xmlns:sketch="http://www.bohemiancoding.com/sketch/ns">
    <!-- Generator: Sketch 3.3 (11970) - http://www.bohemiancoding.com/sketch -->
    <title>img-hello</title>
    <desc>Created with Sketch.</desc>
    <defs></defs>
    <g id="App" stroke="none" stroke-width="1" fill="none" fill-rule="evenodd" sketch:type="MSPage">
        <g id="Tutorials" sketch:type="MSArtboardGroup" transform="translate(-328.000000, -794.000000)" fill="#FFFFFF">
            <g id="Oval-86-+-Bitmap" sketch:type="MSLayerGroup" transform="translate(296.000000, 708.854750)">
                <path d="M39.8271484,89.9306641 L34.0166016,92.1181641 L39.8271484,94.2851562 L39.8271484,95.5361328 L32.6015625,92.6787109 L32.6015625,91.5439453 L39.8271484,88.6865234 L39.8271484,89.9306641 Z M47.6132812,91.7558594 L47.6132812,96.5 L46.3486328,96.5 L46.3486328,91.7558594 C46.3486328,91.0677049 46.2278658,90.5618506 45.9863281,90.2382812 C45.7447905,89.9147119 45.366539,89.7529297 44.8515625,89.7529297 C44.2636689,89.7529297 43.8113623,89.9614237 43.4946289,90.378418 C43.1778956,90.7954122 43.0195312,91.3935508 43.0195312,92.1728516 L43.0195312,96.5 L41.7617188,96.5 L41.7617188,85.8632812 L43.0195312,85.8632812 L43.0195312,89.9921875 C43.2428397,89.5546853 43.5458965,89.2231457 43.9287109,88.9975586 C44.3115254,88.7719715 44.7649713,88.6591797 45.2890625,88.6591797 C46.0683633,88.6591797 46.6505515,88.9155248 47.0356445,89.4282227 C47.4207376,89.9409205 47.6132812,90.7167917 47.6132812,91.7558594 L47.6132812,91.7558594 Z M56.5136719,92.0429688 L56.5136719,92.6582031 L51.0654297,92.6582031 L51.0654297,92.6992188 C51.0289712,93.7428438 51.2283507,94.4925107 51.6635742,94.9482422 C52.0987977,95.4039736 52.7128867,95.6318359 53.5058594,95.6318359 C53.906903,95.6318359 54.3261697,95.5680345 54.7636719,95.4404297 C55.2011741,95.3128249 55.6682918,95.1191419 56.1650391,94.859375 L56.1650391,96.1103516 C55.686521,96.3063161 55.2250999,96.4532873 54.7807617,96.5512695 C54.3364236,96.6492518 53.9069031,96.6982422 53.4921875,96.6982422 C52.3027284,96.6982422 51.3730502,96.3416377 50.703125,95.628418 C50.0331998,94.9151983 49.6982422,93.9319724 49.6982422,92.6787109 C49.6982422,91.4573507 50.0263639,90.4821 50.6826172,89.7529297 C51.3388705,89.0237594 52.2138617,88.6591797 53.3076172,88.6591797 C54.2828825,88.6591797 55.0519178,88.98958 55.6147461,89.6503906 C56.1775744,90.3112012 56.4772134,91.1087193 56.5136719,92.0429688 L56.5136719,92.0429688 Z M55.2558594,91.6738281 C55.2011716,91.1451796 55.008628,90.6883157 54.6782227,90.3032227 C54.3478174,89.9181296 53.8727245,89.7255859 53.2529297,89.7255859 C52.6468069,89.7255859 52.1477884,89.9261048 51.7558594,90.3271484 C51.3639303,90.7281921 51.1497398,91.1793595 51.1132812,91.6806641 L55.2558594,91.6738281 Z M62.2011719,93.7314453 C62.2011719,94.2965523 62.3048492,94.7226548 62.512207,95.0097656 C62.7195648,95.2968764 63.0260396,95.4404297 63.4316406,95.4404297 L64.9013672,95.4404297 L64.9013672,96.5 L63.3085938,96.5 C62.5566369,96.5 61.9744487,96.2596053 61.5620117,95.7788086 C61.1495748,95.2980119 60.9433594,94.6155643 60.9433594,93.7314453 L60.9433594,86.8066406 L58.9267578,86.8066406 L58.9267578,85.8222656 L62.2011719,85.8222656 L62.2011719,93.7314453 Z M70.6298828,93.7314453 C70.6298828,94.2965523 70.7335602,94.7226548 70.940918,95.0097656 C71.1482758,95.2968764 71.4547506,95.4404297 71.8603516,95.4404297 L73.3300781,95.4404297 L73.3300781,96.5 L71.7373047,96.5 C70.9853478,96.5 70.4031596,96.2596053 69.9907227,95.7788086 C69.5782857,95.2980119 69.3720703,94.6155643 69.3720703,93.7314453 L69.3720703,86.8066406 L67.3554688,86.8066406 L67.3554688,85.8222656 L70.6298828,85.8222656 L70.6298828,93.7314453 Z M78.3544922,89.7255859 C77.7164682,89.7255859 77.2334001,89.9739558 76.9052734,90.4707031 C76.5771468,90.9674504 76.4130859,91.7034456 76.4130859,92.6787109 C76.4130859,93.6494189 76.5771468,94.3842748 76.9052734,94.8833008 C77.2334001,95.3823267 77.7164682,95.6318359 78.3544922,95.6318359 C78.9970735,95.6318359 79.4824202,95.3823267 79.8105469,94.8833008 C80.1386735,94.3842748 80.3027344,93.6494189 80.3027344,92.6787109 C80.3027344,91.7034456 80.1386735,90.9674504 79.8105469,90.4707031 C79.4824202,89.9739558 78.9970735,89.7255859 78.3544922,89.7255859 L78.3544922,89.7255859 Z M78.3544922,88.6591797 C79.4163465,88.6591797 80.2286756,89.0032518 80.7915039,89.6914062 C81.3543322,90.3795607 81.6357422,91.375319 81.6357422,92.6787109 C81.6357422,93.9866602 81.3554716,94.9835578 80.7949219,95.6694336 C80.2343722,96.3553094 79.4209038,96.6982422 78.3544922,96.6982422 C77.2926379,96.6982422 76.4814481,96.3553094 75.9208984,95.6694336 C75.3603488,94.9835578 75.0800781,93.9866602 75.0800781,92.6787109 C75.0800781,91.375319 75.3603488,90.3795607 75.9208984,89.6914062 C76.4814481,89.0032518 77.2926379,88.6591797 78.3544922,88.6591797 L78.3544922,88.6591797 Z M83.2695312,91.5507812 L90.515625,91.5507812 L90.515625,92.7060547 L83.2695312,92.7060547 L83.2695312,91.5507812 Z M91.0009766,88.84375 L92.2451172,88.84375 L93.578125,95.0302734 L94.671875,91.0791016 L95.7451172,91.0791016 L96.8525391,95.0302734 L98.1855469,88.84375 L99.4296875,88.84375 L97.6386719,96.5 L96.4355469,96.5 L95.2119141,92.3027344 L93.9951172,96.5 L92.7919922,96.5 L91.0009766,88.84375 Z M103.640625,89.7255859 C103.002601,89.7255859 102.519533,89.9739558 102.191406,90.4707031 C101.86328,90.9674504 101.699219,91.7034456 101.699219,92.6787109 C101.699219,93.6494189 101.86328,94.3842748 102.191406,94.8833008 C102.519533,95.3823267 103.002601,95.6318359 103.640625,95.6318359 C104.283206,95.6318359 104.768553,95.3823267 105.09668,94.8833008 C105.424806,94.3842748 105.588867,93.6494189 105.588867,92.6787109 C105.588867,91.7034456 105.424806,90.9674504 105.09668,90.4707031 C104.768553,89.9739558 104.283206,89.7255859 103.640625,89.7255859 L103.640625,89.7255859 Z M103.640625,88.6591797 C104.702479,88.6591797 105.514808,89.0032518 106.077637,89.6914062 C106.640465,90.3795607 106.921875,91.375319 106.921875,92.6787109 C106.921875,93.9866602 106.641604,94.9835578 106.081055,95.6694336 C105.520505,96.3553094 104.707037,96.6982422 103.640625,96.6982422 C102.578771,96.6982422 101.767581,96.3553094 101.207031,95.6694336 C100.646482,94.9835578 100.366211,93.9866602 100.366211,92.6787109 C100.366211,91.375319 100.646482,90.3795607 101.207031,89.6914062 C101.767581,89.0032518 102.578771,88.6591797 103.640625,88.6591797 L103.640625,88.6591797 Z M115.753906,90.4228516 C115.485025,90.2132151 115.21159,90.0605474 114.933594,89.9648438 C114.655598,89.8691401 114.350262,89.8212891 114.017578,89.8212891 C113.23372,89.8212891 112.634442,90.0673804 112.219727,90.5595703 C111.805011,91.0517603 111.597656,91.7626907 111.597656,92.6923828 L111.597656,96.5 L110.333008,96.5 L110.333008,88.84375 L111.597656,88.84375 L111.597656,90.3408203 C111.807293,89.7984999 112.129718,89.3826512 112.564941,89.0932617 C113.000165,88.8038723 113.516273,88.6591797 114.113281,88.6591797 C114.423179,88.6591797 114.712564,88.6979163 114.981445,88.7753906 C115.250327,88.852865 115.507811,88.973632 115.753906,89.1376953 L115.753906,90.4228516 Z M121.202148,93.7314453 C121.202148,94.2965523 121.305826,94.7226548 121.513184,95.0097656 C121.720541,95.2968764 122.027016,95.4404297 122.432617,95.4404297 L123.902344,95.4404297 L123.902344,96.5 L122.30957,96.5 C121.557613,96.5 120.975425,96.2596053 120.562988,95.7788086 C120.150551,95.2980119 119.944336,94.6155643 119.944336,93.7314453 L119.944336,86.8066406 L117.927734,86.8066406 L117.927734,85.8222656 L121.202148,85.8222656 L121.202148,93.7314453 Z M130.581055,89.8212891 L130.581055,85.8632812 L131.838867,85.8632812 L131.838867,96.5 L130.581055,96.5 L130.581055,95.5361328 C130.371418,95.9143899 130.092287,96.2026357 129.743652,96.4008789 C129.395018,96.5991221 128.992841,96.6982422 128.537109,96.6982422 C127.611975,96.6982422 126.883954,96.3393591 126.353027,95.621582 C125.8221,94.903805 125.556641,93.9137433 125.556641,92.6513672 C125.556641,91.4072203 125.82324,90.4308304 126.356445,89.722168 C126.889651,89.0135056 127.616532,88.6591797 128.537109,88.6591797 C128.997398,88.6591797 129.402993,88.7582998 129.753906,88.956543 C130.104819,89.1547861 130.380533,89.443032 130.581055,89.8212891 L130.581055,89.8212891 Z M126.882812,92.6787109 C126.882812,93.6539762 127.037759,94.3899715 127.347656,94.8867188 C127.657554,95.383466 128.115557,95.6318359 128.72168,95.6318359 C129.327803,95.6318359 129.789224,95.3811874 130.105957,94.8798828 C130.42269,94.3785782 130.581055,93.6448616 130.581055,92.6787109 C130.581055,91.708003 130.42269,90.973147 130.105957,90.4741211 C129.789224,89.9750952 129.327803,89.7255859 128.72168,89.7255859 C128.115557,89.7255859 127.657554,89.9739558 127.347656,90.4707031 C127.037759,90.9674504 126.882812,91.7034456 126.882812,92.6787109 L126.882812,92.6787109 Z M139.22168,86.2939453 L140.520508,86.2939453 L135.147461,97.7988281 L133.841797,97.7988281 L139.22168,86.2939453 Z M142.174805,89.9306641 L142.174805,88.6865234 L149.400391,91.5439453 L149.400391,92.6787109 L142.174805,95.5361328 L142.174805,94.2851562 L147.985352,92.1181641 L142.174805,89.9306641 Z" id="img-hello" sketch:type="MSShapeGroup"></path>
            </g>
        </g>
    </g>
</svg>