<?xml version="1.0" encoding="UTF-8" standalone="no"?>
<svg width="211px" height="190px" viewBox="0 0 211 190" version="1.1" xmlns="http://www.w3.org/2000/svg" xmlns:xlink="http://www.w3.org/1999/xlink" xmlns:sketch="http://www.bohemiancoding.com/sketch/ns">
    <!-- Generator: Sketch 3.3 (11970) - http://www.bohemiancoding.com/sketch -->
    <title>#467bbdff</title>
    <desc>Created with Sketch.</desc>
    <defs></defs>
    <g id="Page-1" stroke="none" stroke-width="1" fill="none" fill-rule="evenodd" sketch:type="MSPage">
        <g id="#467bbdff" sketch:type="MSLayerGroup" fill="#fff">
            <path d="M124.36,6.35 C132.63,1.01 143.07,-0.48 152.63,1.6 C157.32,2.79 162.17,4.88 164.9,9.09 C180.23,29.61 193.66,51.63 204.47,74.86 C198.78,72.78 192.56,72.06 186.67,73.78 C178.21,75.75 170.99,80.97 164.61,86.65 C148.37,101.55 135.93,120 124.85,138.91 C115.48,153.72 105.56,168.67 91.81,179.8 C84.09,186.23 74.03,189.65 64.02,189.48 C55.95,189.27 47.88,185.55 43.18,178.86 C28.34,158.96 15.59,137.46 5.23,114.9 C14.11,118.66 24.29,117.1 32.6,112.66 C41.01,108.1 48.03,101.44 54.51,94.5 C66.32,81.6 76.14,67.03 84.92,51.94 C90.23,43.54 95.56,35.06 102.14,27.57 C103.45,48.38 103.6,69.25 104,90.1 C109.49,92.54 115.33,94.03 121,96.01 C129.71,98.65 138.28,101.76 147.05,104.24 C132.52,78.32 117.19,52.85 102.42,27.06 C108.67,19.16 115.84,11.81 124.36,6.35 L124.36,6.35 Z M162.15,12.73 C160.67,23.81 159.3,34.91 157.88,46 C157.34,48.13 159.92,48.76 161.19,49.81 C173.68,57.35 186,65.2 198.69,72.38 C197.21,68.97 195.28,65.8 193.48,62.56 C183.67,45.57 174.41,28.11 162.15,12.73 L162.15,12.73 Z M60.87,98.94 C59.35,114.4 57.55,129.86 56.38,145.35 C73.54,150.71 90.61,156.4 107.85,161.45 C103,152.65 97.48,144.25 92.42,135.57 C82.48,119.28 72.92,102.74 62.76,86.59 C61.36,90.55 61.45,94.82 60.87,98.94 L60.87,98.94 Z" id="Shape" sketch:type="MSShapeGroup"></path>
            <path d="M30.74,62.8 C46.29,58.05 62.63,56.65 78.81,56.2 C70.69,70.13 60.99,83.19 49.93,94.94 C42.7,102.23 34.78,109.6 24.72,112.63 C18.78,114.41 11.92,114.89 6.37,111.66 C2.36,109.37 1.33,104.52 0,100.47 L0,95.49 C0.64,88.9 3.28,82.58 7.37,77.4 C13.03,69.81 21.91,65.56 30.74,62.8 L30.74,62.8 Z" id="Shape" sketch:type="MSShapeGroup"></path>
            <path d="M175.8,81.79 C182.54,77.46 190.82,74.9 198.85,76.33 C202.56,77.2 206.61,79.13 208.02,82.94 C211.36,90.32 210.89,99.13 207.14,106.26 C202.32,115.47 193.75,122.49 183.99,125.95 C167.35,132.08 149.41,133.09 131.85,133.79 C136.37,125 142.22,117 148.16,109.14 C156.14,98.91 164.86,88.95 175.8,81.79 L175.8,81.79 Z" id="Shape" sketch:type="MSShapeGroup"></path>
        </g>
    </g>
</svg>
