<?xml version="1.0" encoding="UTF-8" standalone="no"?>
<svg width="263px" height="58px" viewBox="0 0 263 58" version="1.1" xmlns="http://www.w3.org/2000/svg" xmlns:xlink="http://www.w3.org/1999/xlink" xmlns:sketch="http://www.bohemiancoding.com/sketch/ns">
    <!-- Generator: Sketch 3.2.2 (9983) - http://www.bohemiancoding.com/sketch -->
    <title>Group 20</title>
    <desc>Created with Sketch.</desc>
    <defs></defs>
    <g id="Page-1" stroke="none" stroke-width="1" fill="none" fill-rule="evenodd" sketch:type="MSPage">
        <g id="webtask_01" sketch:type="MSLayerGroup" transform="translate(-200.000000, -47.000000)" fill="#5F3237">
            <g id="Group-20" transform="translate(200.000000, 47.000000)" sketch:type="MSShapeGroup">
                <path d="M25.4645,29.168 L25.2425,29.168 C24.7245,31.536 19.0275,54.249 18.2875,57.209 L9.4835,57.209 C6.5245,44.261 3.4905,31.314 0.3825,18.292 L8.0775,18.292 C8.9655,22.288 13.7005,45.667 14.4405,50.032 L14.6625,50.032 C14.5885,49.958 19.4715,29.464 22.2085,18.292 L29.1635,18.292 C30.1995,22.288 35.9705,45.593 36.7845,50.032 L37.0065,50.032 C36.9325,50.032 41.1495,29.464 43.4425,18.292 L50.3235,18.292 C47.3635,31.314 44.4785,44.261 41.4455,57.209 L32.2705,57.209 C31.6055,54.397 26.2045,33.237 25.4645,29.168" id="Fill-6"></path>
                <path d="M77.8466,34.7168 L77.8466,32.2018 C77.8466,26.6528 75.9236,23.1748 70.8186,23.1748 C66.3046,23.1748 63.6416,26.6528 63.6416,34.7168 L77.8466,34.7168 Z M85.8376,39.6738 L63.5676,39.6738 C63.5676,47.4428 66.1576,51.5858 72.8156,51.5858 L84.2096,51.5858 L84.2096,56.0988 C80.8066,56.9868 76.4406,57.8008 72.0756,57.8008 C62.3096,57.8008 55.5036,51.5118 55.5036,37.5288 C55.5036,23.2488 62.3836,17.7008 71.1146,17.7008 C80.2146,17.7008 85.8376,22.8798 85.8376,37.4548 L85.8376,39.6738 Z" id="Fill-8"></path>
                <path d="M109.4389,23.9151 L103.0019,23.9151 L103.0019,51.5861 L109.5129,51.5861 C115.6539,51.5861 118.4649,47.1471 118.4649,37.5291 C118.4649,28.2061 115.5799,23.9151 109.4389,23.9151 L109.4389,23.9151 Z M103.0019,11.9291 C103.0019,14.0751 103.0019,16.3681 102.9289,18.5141 L103.0759,18.5141 C104.7779,18.1441 108.0329,17.7001 110.4749,17.7001 C118.4649,17.7001 126.7519,22.4361 126.7519,37.5291 C126.7519,51.3641 119.8709,57.8001 108.7729,57.8001 C103.9639,57.8001 99.8209,56.9871 95.3079,56.0991 L95.3079,0.0921 L103.0019,0.0921 L103.0019,11.9291 Z" id="Fill-10"></path>
                <path d="M140.5141,6.0843 L145.1011,6.0843 L145.1011,18.2923 L154.7191,18.2923 L154.7191,23.9153 L145.1011,23.9153 L145.1011,46.4073 C145.1011,49.2923 146.4331,51.5863 149.9841,51.5863 L154.9411,51.5863 L154.9411,56.0993 C152.0561,57.1353 149.1711,57.8003 145.9151,57.8003 C141.7721,57.8003 137.4061,55.7293 137.4061,48.4783 L137.4061,23.9153 L132.2271,23.9153 L132.2271,18.2923 L138.0731,18.2923 L140.5141,6.0843 Z" id="Fill-12"></path>
                <path d="M181.5026,38.1944 L173.5856,39.6004 C169.6656,40.2654 168.4066,42.1894 168.4066,46.1854 C168.4066,49.9574 170.4786,52.1774 173.8816,52.1774 C176.2496,52.1774 178.3946,51.7344 181.5026,50.7724 L181.5026,38.1944 Z M160.5646,46.2594 C160.5646,39.5264 164.7826,35.8264 172.7726,34.7164 L181.5026,33.5334 L181.5026,29.1684 C181.5026,25.3944 179.6536,23.9154 175.2136,23.9154 L163.3756,23.9154 L163.3756,19.2544 C167.0016,18.3664 171.7366,17.7004 175.8796,17.7004 C184.6106,17.7004 189.1976,22.2874 189.1976,30.2774 L189.1976,57.2084 L183.1296,57.2084 L182.4646,54.5454 L182.3166,54.5454 C180.7626,55.5814 176.3976,57.7264 171.4406,57.7264 C164.2636,57.7264 160.5646,53.2134 160.5646,46.2594 L160.5646,46.2594 Z" id="Fill-14"></path>
                <path d="M222.8603,45.8892 C222.8603,52.4732 218.1253,57.8002 209.5423,57.8002 C205.6953,57.8002 201.9963,57.2092 199.0373,56.3212 L199.0373,51.5862 L209.9123,51.5862 C213.1683,51.5862 215.4613,49.8102 215.4613,47.1472 C215.4613,39.9702 198.1493,41.0062 198.1493,28.3542 C198.1493,22.5092 202.3663,17.7002 210.9483,17.7002 C214.2773,17.7002 217.9773,18.3662 220.4183,19.1062 L220.4183,23.9152 L210.2083,23.9152 C207.0273,23.9152 205.3253,25.2462 205.3253,27.5402 C205.3253,34.4212 222.8603,33.8292 222.8603,45.8892" id="Fill-16"></path>
                <path d="M239.5068,36.493 L253.5638,18.292 L262.4428,18.292 L248.3848,36.493 L262.4428,57.209 L253.2678,57.209 L239.5068,36.493 Z M238.9888,57.209 L231.2938,57.209 L231.2938,0.092 L238.9888,0.092 L238.9888,57.209 Z" id="Fill-18"></path>
            </g>
        </g>
    </g>
</svg>