<?xml version="1.0" encoding="UTF-8" standalone="no"?>
<svg width="38px" height="85px" viewBox="0 0 38 85" version="1.1" xmlns="http://www.w3.org/2000/svg" xmlns:xlink="http://www.w3.org/1999/xlink" xmlns:sketch="http://www.bohemiancoding.com/sketch/ns">
    <!-- Generator: Sketch 3.3 (11970) - http://www.bohemiancoding.com/sketch -->
    <title>Group</title>
    <desc>Created with Sketch.</desc>
    <defs></defs>
    <g id="Page-1" stroke="none" stroke-width="1" fill="none" fill-rule="evenodd" sketch:type="MSPage">
        <g id="Group" sketch:type="MSLayerGroup">
            <path d="M22.9866667,72.1410937 C22.912,72.1915625 20.824,63.4365625 20.7306667,59.0378125 C19.5413333,73.5409375 16.4666667,72.2101562 16.4666667,72.2101562 C19.5333333,76.6328125 18.0773333,84.1128125 18.0773333,84.1128125 L20.9546667,84.1128125 C20.9546667,84.1128125 20.432,77.9104687 21.064,75.0735937 C21.256,74.2129688 22.464,72.7732812 22.9866667,72.1410937" id="Fill-5" fill="#D3C7AD" sketch:type="MSShapeGroup"></path>
            <path d="M24.944,70.61375 C25.0026667,70.581875 25.04,70.560625 25.04,70.560625 C25.04,70.55 25.0373333,70.539375 25.0373333,70.52875 C25.0053333,70.5579687 24.976,70.5845312 24.944,70.61375" id="Fill-6" fill="#D3C7AD" sketch:type="MSShapeGroup"></path>
            <path d="M19.7466667,74.7495313 C19.7466667,74.7495313 -0.685333333,61.2557813 0.362666667,39.4346875 C1.408,17.6109375 18.456,2.55 18.584,0.8553125 C19.72,3.28046875 26.1626667,37.0520312 26.2853333,41.0045313 C26.7493333,56.408125 19.7466667,74.7495313 19.7466667,74.7495313" id="Fill-7" fill="#74B944" sketch:type="MSShapeGroup"></path>
            <path d="M36.9493333,33.745 C32.5733333,14.535 18.6693333,1.08109375 18.6693333,1.08109375 L18.6693333,1.1103125 C23.992,23.6060938 19.7466667,74.7495313 19.7466667,74.7495313 C19.7466667,74.7495313 41.4986667,60.1853125 36.9493333,33.745" id="Fill-8" fill="#46A046" sketch:type="MSShapeGroup"></path>
        </g>
    </g>
</svg>
